<svg xmlns="http://www.w3.org/2000/svg" width="686" height="686" fill="none"><path fill="#000" d="M342.473 312 191.564 160.861C173.79 143.055 164 119.39 164 94.211c0-25.176 9.79-48.845 27.564-66.647 36.696-36.744 96.399-36.748 133.087 0l17.822 17.85 17.822-17.85c36.692-36.748 96.387-36.756 133.087 0 23.447 23.479 32.745 56.778 24.875 89.073-4.074 16.713-12.678 32.004-24.875 44.22L342.473 312Z"/><path fill="#000" d="M342.473 312 191.564 160.861C173.79 143.055 164 119.39 164 94.211c0-25.176 9.79-48.845 27.564-66.647 36.696-36.744 96.399-36.748 133.087 0l17.822 17.85 17.822-17.85c36.692-36.748 96.387-36.756 133.087 0 23.447 23.479 32.745 56.778 24.875 89.073-4.074 16.713-12.678 32.004-24.875 44.22L342.473 312ZM374 342.473l151.139-150.908C542.945 173.79 566.61 164 591.79 164c25.175 0 48.844 9.79 66.646 27.565 36.744 36.695 36.748 96.398 0 133.086l-17.849 17.822 17.849 17.822c36.748 36.692 36.756 96.387 0 133.087-23.479 23.447-56.778 32.745-89.073 24.875-16.713-4.074-32.004-12.678-44.22-24.875L374 342.473Z"/><path fill="#000" d="m374 342.473 151.139-150.908C542.945 173.79 566.61 164 591.79 164c25.175 0 48.844 9.79 66.646 27.565 36.744 36.695 36.748 96.398 0 133.086l-17.849 17.822 17.849 17.822c36.748 36.692 36.756 96.387 0 133.087-23.479 23.447-56.778 32.745-89.073 24.875-16.713-4.074-32.004-12.678-44.22-24.875L374 342.473ZM342.527 374l150.909 151.139C511.21 542.945 521 566.61 521 591.79c0 25.175-9.79 48.844-27.564 66.646-36.696 36.744-96.399 36.748-133.087 0l-17.822-17.849-17.822 17.849c-36.692 36.748-96.387 36.756-133.087 0-23.447-23.479-32.745-56.778-24.875-89.073 4.074-16.713 12.678-32.004 24.875-44.22L342.527 374Z"/><path fill="#000" d="m342.527 374 150.909 151.139C511.21 542.945 521 566.61 521 591.79c0 25.175-9.79 48.844-27.564 66.646-36.696 36.744-96.399 36.748-133.087 0l-17.822-17.849-17.822 17.849c-36.692 36.748-96.387 36.756-133.087 0-23.447-23.479-32.745-56.778-24.875-89.073 4.074-16.713 12.678-32.004 24.875-44.22L342.527 374ZM312 342.527 160.861 493.435C143.055 511.21 119.39 521 94.211 521c-25.176 0-48.845-9.79-66.647-27.565-36.744-36.695-36.748-96.398 0-133.086l17.85-17.822-17.85-17.822c-36.748-36.692-36.756-96.387 0-133.087 23.479-23.447 56.778-32.745 89.073-24.875 16.713 4.074 32.004 12.678 44.22 24.875L312 342.527Z"/><path fill="#000" d="M312 342.527 160.861 493.435C143.055 511.21 119.39 521 94.211 521c-25.176 0-48.845-9.79-66.647-27.565-36.744-36.695-36.748-96.398 0-133.086l17.85-17.822-17.85-17.822c-36.748-36.692-36.756-96.387 0-133.087 23.479-23.447 56.778-32.745 89.073-24.875 16.713 4.074 32.004 12.678 44.22 24.875L312 342.527Z"/></svg>